<?xml version="1.0" encoding="UTF-8"?>
<svg xmlns="http://www.w3.org/2000/svg" xmlns:xlink="http://www.w3.org/1999/xlink" width="794" height="817" viewBox="-38 128 794 817">
  <defs>
    <linearGradient id="c">
      <stop offset="0" stop-opacity="0"/>
      <stop offset=".5"/>
      <stop offset="1" stop-opacity="0"/>
    </linearGradient>
    <linearGradient id="d">
      <stop offset="0"/>
      <stop offset="1" stop-opacity="0"/>
    </linearGradient>
    <linearGradient id="b">
      <stop offset="0" stop-color="#fff"/>
      <stop offset=".5" stop-color="#fff" stop-opacity=".21904762"/>
      <stop offset="1" stop-color="#fff"/>
    </linearGradient>
    <linearGradient id="a">
      <stop offset="0" stop-color="#fff"/>
      <stop offset=".5" stop-color="#ef2929"/>
      <stop offset="1" stop-color="#a40000"/>
    </linearGradient>
    <linearGradient xlink:href="#a" id="h" x1="6.5864072" x2="30.530771" y1="17.101343" y2="17.101343" gradientTransform="matrix(33.49144 0 0 41.0246 -264.94637 -224.94021)" gradientUnits="userSpaceOnUse"/>
    <linearGradient xlink:href="#a" id="i" x1="6.5864072" x2="30.530771" y1="17.101343" y2="17.101343" gradientTransform="matrix(33.49144 0 0 41.0246 -264.94637 -224.94021)" gradientUnits="userSpaceOnUse"/>
    <linearGradient xlink:href="#b" id="j" x1="-24.150043" x2="737.37329" y1="476.62445" y2="476.62445" gradientUnits="userSpaceOnUse"/>
    <linearGradient xlink:href="#c" id="e" x1="302.85715" x2="302.85715" y1="366.64789" y2="609.50507" gradientTransform="matrix(1.10477 0 0 .49515 -42.10121 639.05194)" gradientUnits="userSpaceOnUse"/>
    <radialGradient xlink:href="#d" id="g" cx="605.71429" cy="486.64789" r="117.14286" fx="605.71429" fy="486.64789" gradientTransform="matrix(-1.10477 0 0 .49515 756.27391 639.05194)" gradientUnits="userSpaceOnUse"/>
    <radialGradient xlink:href="#d" id="f" cx="605.71429" cy="486.64789" r="117.14286" fx="605.71429" fy="486.64789" gradientTransform="matrix(1.10477 0 0 .49515 -41.883597 639.05194)" gradientUnits="userSpaceOnUse"/>
  </defs>
  <path fill="none" d="M-64.879845 115.85568h850v850h-850z"/>
  <text xml:space="preserve" x="-334.31387" y="437.84897" font-family="Bitstream Vera Sans" font-size="12" font-weight="400"><tspan x="-334.31387" y="437.84897"></tspan></text>
  <path fill="url(#e)" d="M90.471497 820.5976h533.44714v120.25068H90.471497z" opacity=".22999998" overflow="visible" style="marker:none"/>
  <path fill="url(#f)" d="M623.91869 820.60169v120.24406c56.89305.22634 137.53968-26.94059 137.53963-60.12976 0-33.18918-63.48833-60.1143-137.53963-60.1143z" opacity=".22999998" overflow="visible" style="marker:none"/>
  <path fill="url(#g)" d="M90.471531 820.60169v120.24406c-56.89305.22634-137.539632-26.94059-137.539632-60.12976 0-33.18918 63.488327-60.1143 137.539632-60.1143z" opacity=".22999998" overflow="visible" style="marker:none"/>
  <path fill="url(#h)" stroke="#a40000" stroke-linecap="round" stroke-linejoin="round" stroke-width="21.8879261" d="M630.21875 117.03125c-3.89165.06269-7.70968 1.07083-11.125 2.9375l-96.6875 52.8125c-5.90305 3.23253-10.17779 8.79488-11.78212 15.33104-1.60433 6.53616-.39085 13.44561 3.34462 19.04396-.11355 1.71995-.87929 5.88074-3.125 11.625-4.71295 12.05515-15.11479 30.08106-29.71875 50.84375-25.94582 36.88761-65.18762 83.15298-109 131.40625-83.76815-80.77048-163.92896-167.79079-239.1875-262.5-4.00032-5.03012-9.85079-8.24587-16.24144-8.92722-6.39066-.68136-12.78762 1.2286-17.75856 5.30222L27.4375 193.5c-5.221698 4.28282-8.397562 10.56725-8.748456 17.31155-.350893 6.74429 2.155653 13.32437 6.904706 18.12595 87.4408 88.46367 176.15954 174.35618 266.375 257.53125-61.17221 63.41006-122.93371 124.30898-168.28125 168.5625-24.768217 24.17068-44.597489 43.38802-56.96875 55.625-6.18563 6.11849-10.17282 10.05733-13.25 13.53125-.769295.86848-1.399392 1.48044-2.84375 3.59375-.350595.51297-.81113.89927-1.375 1.84375-.016879.02827-.014177.03317-.03125.0625l-66.25 65.46875c-8.863753 8.77208-9.533501 22.87066-1.541215 32.44348C-10.58018 837.17255 3.4114942 839.0304 13.625 831.875c120.99153-84.80343 236.33612-179.10789 342.09375-287.3125C448.42251 627.93223 542.76117 708.33416 639.1875 785c8.97907 7.14557 21.75997 6.93605 30.5-.5l59.25-50.40625c5.60664-4.77708 8.70947-11.86394 8.41678-19.22392-.2927-7.35998-3.94849-14.17806-9.91678-18.49483-100.65981-72.88193-198.87408-151.38913-293.0625-237.0625 79.85529-91.8409 153.00634-193.15385 217.09375-306.46875 4.23232-7.48641 4.13599-16.66501-.25252-24.06095-4.38852-7.39593-12.39849-11.87883-20.99748-11.75155z" overflow="visible" style="marker:none" transform="translate(13.695559 39.431797) scale(.96767)"/>
  <path fill="url(#i)" stroke="url(#j)" stroke-linecap="round" stroke-linejoin="round" stroke-width="21.8879261" d="M630.53125 138.34375c-.42404.0116-.84611.14008-1.21875.34375L532.625 191.5c-.64619.35385-1.09785.97156-1.28125 1.71875-.18341.74723-.05489 1.44947.375 2.09375 2.60349 3.90756 3.84475 8.56504 3.53125 13.25-.37979 5.75266-1.61254 10.50304-4.53125 17.96875-5.96252 15.25139-16.95213 33.75905-32.15625 55.375-26.93974 38.30068-66.54362 84.8848-110.65625 133.46875-3.87925 4.26746-9.32133 6.78207-15.08538 6.97047-5.76405.18841-11.35872-1.96545-15.50837-5.97047-84.38408-81.36437-165.17357-169.05998-241.0625-264.5625-.45097-.56706-1.11183-.9253-1.8125-1-.70066-.0747-1.38497.11535-1.96875.59375L40.96875 210c-.591085.48481-.92922 1.14648-.96875 1.90625-.039529.75977.210159 1.48544.75 2.03125 87.22253 88.24285 175.72866 173.90527 265.6875 256.84375 4.22131 3.89374 6.69401 9.32527 6.8587 15.06579.16469 5.74051-1.99256 11.30487-5.9837 15.43421-61.41505 63.66179-123.2991 124.67611-168.71875 169-24.79632 24.1981-44.66757 43.45632-56.875 55.53125-6.18982 6.12263-9.961608 9.91254-12.28125 12.53125-1.304701 1.47292-.322542.15746-1.21875 1.46875-2.44538 3.57794-1.400277 1.99624-.65625.75-.927547 1.56377-2.051242 3.00252-3.34375 4.28125l-66.25 65.46875c-1.1229747 1.11136-1.1792224 2.39973-.15625 3.625 1.0229698 1.22527 2.26517817 1.37763 3.5625.46875 120.12308-84.19473 234.42456-177.65902 339.09375-284.75 7.99455-8.16442 21.00318-8.57783 29.5-.9375 92.42396 83.1181 186.45523 163.23127 282.5 239.59375 1.10475.87916 2.33091.8524 3.40625-.0625l59.25-50.40625c.63352-.53978.94037-1.26708.90625-2.125-.03411-.85776-.43104-1.58317-1.09375-2.0625-101.21492-73.28385-200.05617-152.28728-294.90625-238.5625-8.58382-7.79997-9.36122-21.02963-1.75-29.78125 78.99109-90.84699 151.27941-190.96548 214.625-302.96875.49014-.867.47328-1.83723-.03125-2.6875-.49906-.84105-1.33068-1.31656-2.3125-1.3125h-.03125z" overflow="visible" style="marker:none" transform="translate(13.695559 39.431797) scale(.96767)"/>
</svg>